<svg xmlns="http://www.w3.org/2000/svg" viewBox="0 0 69.83 69.83"><defs><style>.cls-1{fill:#fff;}.cls-2{fill:none;stroke:#cbcbcb;stroke-miterlimit:10;stroke-width:5.57px;}.cls-3{fill:#92278e;}</style></defs><g id="Layer_2" data-name="Layer 2"><g id="Layer_1-2" data-name="Layer 1"><circle class="cls-1" cx="34.92" cy="34.92" r="34.92"/><circle class="cls-2" cx="34.92" cy="34.92" r="32.05"/><line class="cls-1" x1="19.59" y1="26.09" x2="50.25" y2="26.09"/><path class="cls-3" d="M50.25,27.48H19.59a1.39,1.39,0,1,1,0-2.78H50.25a1.39,1.39,0,0,1,0,2.78Z"/><line class="cls-1" x1="50.25" y1="35.34" x2="28.88" y2="35.34"/><path class="cls-3" d="M28.88,33.94H50.25a1.4,1.4,0,0,1,0,2.79H28.88a1.4,1.4,0,1,1,0-2.79Z"/><line class="cls-1" x1="22.38" y1="44.67" x2="50.25" y2="44.67"/><path class="cls-3" d="M50.25,46.07H22.38a1.4,1.4,0,1,1,0-2.79H50.25a1.4,1.4,0,0,1,0,2.79Z"/></g></g></svg>