<svg width="20" height="20" version="1.1" viewBox="0 0 5.2917 5.2917" xmlns="http://www.w3.org/2000/svg">
 <circle cx="2.6458" cy="2.6458" r="1.4658" fill="#454545" stroke="#8a8a8a" stroke-linecap="square" stroke-miterlimit="4.1833" stroke-width=".06222" style="paint-order:markers fill stroke"/>
 <g transform="matrix(.061348 0 0 .061348 .5217 -.022217)" fill="none" stroke="#f3f3f3" stroke-width="1px" style="shape-inside:url(#rect3174);white-space:pre" aria-label="LOGO">
  <path d="m25.283 47.24h-3.9307v-7.4219h0.15625v7.2705h3.7744z"/>
  <path d="m32.163 45.448-0.35156 0.72266-0.71777 0.71777-0.73242 0.35156h-1.4404l-0.72754-0.35156-0.72266-0.71777-0.34668-0.72266-0.36133-1.0693v-1.7676l0.36133-1.0693 0.34668-0.72266 0.72266-0.71777 0.72754-0.36133h1.4404l0.73242 0.36133 0.71777 0.71777 0.35156 0.72266 0.36133 1.0693v1.7676zm-0.1416-0.05859 0.3418-1.0303v-1.7285l-0.3418-1.0303-0.34668-0.67871-0.68359-0.68359-0.66894-0.33691h-1.3574l-0.67383 0.33691-0.67871 0.68359-0.35156 0.67871-0.33691 1.0303v1.7285l0.33691 1.0303 0.35156 0.67871 0.67871 0.68359 0.67383 0.33691h1.3574l0.66894-0.33691 0.68359-0.68359z"/>
  <path d="m38.203 44.291h1.8311v1.1475l-0.36133 0.73242-0.71777 0.71777-0.73242 0.35156h-1.4404l-0.72754-0.35156-0.72266-0.71777-0.34668-0.72266-0.36133-1.0693v-1.7676l0.36133-1.0693 0.34668-0.72266 0.72266-0.71777 0.72754-0.36133h1.4404l0.73242 0.36133 0.71777 0.71777 0.35156 0.71289-0.1416 0.07813-0.34668-0.68848-0.68359-0.68359-0.66894-0.33691h-1.3574l-0.67383 0.33691-0.67871 0.68359-0.35156 0.67871-0.33691 1.0303v1.7285l0.33691 1.0303 0.35156 0.67871 0.67871 0.68359 0.67383 0.33691h1.3574l0.66894-0.33691 0.68359-0.68359 0.33691-0.66894v-0.94727h-1.6699z"/>
  <path d="m47.534 45.448-0.35156 0.72266-0.71777 0.71777-0.73242 0.35156h-1.4404l-0.72754-0.35156-0.72266-0.71777-0.34668-0.72266-0.36133-1.0693v-1.7676l0.36133-1.0693 0.34668-0.72266 0.72266-0.71777 0.72754-0.36133h1.4404l0.73242 0.36133 0.71777 0.71777 0.35156 0.72266 0.36133 1.0693v1.7676zm-0.1416-0.05859 0.3418-1.0303v-1.7285l-0.3418-1.0303-0.34668-0.67871-0.68359-0.68359-0.66895-0.33691h-1.3574l-0.67383 0.33691-0.67871 0.68359-0.35156 0.67871-0.33691 1.0303v1.7285l0.33691 1.0303 0.35156 0.67871 0.67871 0.68359 0.67383 0.33691h1.3574l0.66895-0.33691 0.68359-0.68359z"/>
 </g>
</svg>
