<svg id="SVGRoot" width="16px" height="16px" version="1.1" viewBox="0 0 16 16" xmlns="http://www.w3.org/2000/svg">
 <g fill="none" stroke="#080808" stroke-dashoffset="14.939" stroke-linecap="round">
  <circle cx="8.0001" cy="7.9997" r="1.7503" opacity=".988" style="paint-order:stroke markers fill"/>
  <path d="m7.0215 2.5645v1.3066a4.2535 4.2535 0 0 0-1.252 0.51367l-0.92188-0.92188-1.3848 1.3848 0.92188 0.92188a4.2535 4.2535 0 0 0-0.51367 1.25h-1.3066v1.959h1.3066a4.2535 4.2535 0 0 0 0.51367 1.252l-0.92188 0.91992 1.3848 1.3848 0.92188-0.91992a4.2535 4.2535 0 0 0 1.252 0.51172v1.3086h1.959v-1.3086a4.2535 4.2535 0 0 0 1.252-0.51172l0.91992 0.91992 1.3828-1.3848-0.91992-0.91992a4.2535 4.2535 0 0 0 0.51367-1.252h1.3066v-1.959h-1.2969a4.2535 4.2535 0 0 0-0.51953-1.2539l0.91602-0.91797-1.3828-1.3848-0.91797 0.91797a4.2535 4.2535 0 0 0-1.2539-0.51953v-1.2969z" opacity=".988" style="paint-order:stroke markers fill"/>
 </g>
</svg>
