<svg id="SVGRoot" width="16px" height="16px" version="1.1" viewBox="0 0 16 16" xmlns="http://www.w3.org/2000/svg">
 <g>
  <path d="m7.8555 3.6563c-0.22761 0-0.41016 0.1845-0.41016 0.41211s0.18255 0.41016 0.41016 0.41016h0.17773c0.22761 0 0.41016-0.18255 0.41016-0.41016s-0.18255-0.41211-0.41016-0.41211zm0.14453 0.88672c-0.26769 0-1.171-4.581e-4 -2.1875 0.86133-0.9672 0.82002-0.90911 2.1999-1.127 4.0879-0.13258 1.149-1.459 2.8516-1.459 2.8516h9.5469c-1e-6 0-1.3264-1.7025-1.459-2.8516-0.21784-1.888-0.15975-3.2679-1.127-4.0879-1.0165-0.86179-1.9198-0.86133-2.1875-0.86133z" fill="none" stroke="#000" stroke-width="1px"/>
 </g>
</svg>
