<svg id="SVGRoot" width="16px" height="16px" version="1.1" viewBox="0 0 16 16" xmlns="http://www.w3.org/2000/svg">
 <g fill="none" stroke="#080808" stroke-dashoffset="14.939" stroke-linecap="round">
  <path d="m8.4203 4.0956c-2.7835 0-5.0401 1.4643-5.0401 3.2706 0.0028 0.82993 0.49175 1.6281 1.3677 2.2328-0.80893 0.96631-1.6506 1.5181-1.6506 1.5181s2.2976-0.16033 3.7704-0.64612c0.50094 0.10768 1.0248 0.16363 1.5525 0.16582 2.7835 0 5.0401-1.4643 5.0401-3.2706 0-1.8063-2.2565-3.2706-5.0401-3.2706z" style="paint-order:stroke markers fill"/>
  <path d="m6.3027 7.4258a0.2472 0.2472 0 0 0-0.24805 0.24609 0.2472 0.2472 0 0 0 0.24805 0.24805 0.2472 0.2472 0 0 0 0.24609-0.24805 0.2472 0.2472 0 0 0-0.24609-0.24609zm2.0762 0a0.2472 0.2472 0 0 0-0.24609 0.24609 0.2472 0.2472 0 0 0 0.24609 0.24805 0.2472 0.2472 0 0 0 0.24805-0.24805 0.2472 0.2472 0 0 0-0.24805-0.24609zm2.0781 0a0.2472 0.2472 0 0 0-0.24805 0.24609 0.2472 0.2472 0 0 0 0.24805 0.24805 0.2472 0.2472 0 0 0 0.24609-0.24805 0.2472 0.2472 0 0 0-0.24609-0.24609z" stroke-width=".5056" style="paint-order:stroke markers fill"/>
 </g>
</svg>
